<!DOCTYPE svg PUBLIC "-//W3C//DTD SVG 20010904//EN" "http://www.w3.org/TR/2001/REC-SVG-20010904/DTD/svg10.dtd">
<svg version="1.0" xmlns="http://www.w3.org/2000/svg" width="1200px" height="174px" viewBox="0 0 12000 1740" preserveAspectRatio="xMidYMid meet">
<g id="layer101" fill="#000000" stroke="none">
</g>
<g id="layer102" fill="#ff0000" stroke="none">
<path d="M5845 1719 c-197 -29 -399 -142 -524 -294 -42 -51 -45 -62 -20 -78 10 -6 39 16 114 90 84 83 115 106 195 146 129 64 225 87 373 87 146 0 220 -17 352 -80 231 -112 391 -321 440 -578 8 -42 15 -96 15 -119 l0 -43 2605 0 2605 0 0 30 0 30 -2577 2 -2577 3 -12 75 c-77 481 -509 799 -989 729z"/>
<path d="M5820 1591 c-135 -32 -244 -88 -340 -174 -43 -39 -160 -184 -160 -199 0 -4 -11 -31 -25 -60 -13 -29 -31 -82 -41 -118 -21 -87 -21 -264 1 -350 56 -217 212 -405 410 -496 157 -72 354 -88 515 -40 158 46 277 125 377 249 160 198 206 458 124 703 -16 46 -44 109 -62 141 -43 72 -167 199 -239 244 -169 107 -374 143 -560 100z"/>
<path d="M0 880 l0 -30 2560 0 2560 0 0 -44 c0 -67 45 -230 89 -320 202 -413 708 -591 1133 -398 127 57 265 168 326 260 13 21 13 24 -4 37 -27 20 -28 20 -60 -27 -48 -68 -160 -155 -269 -208 -146 -71 -212 -84 -392 -77 -81 2 -164 10 -183 17 -112 41 -143 56 -236 117 -155 100 -272 261 -321 440 -8 32 -18 103 -22 158 l-6 100 -2587 3 -2588 2 0 -30z"/>
</g>


</svg>